<svg xmlns="http://www.w3.org/2000/svg" width="22.253" height="22.253" viewBox="0 0 22.253 22.253">
  <path id="grid" d="M4.769,32H1.59A1.59,1.59,0,0,0,0,33.59v3.179a1.59,1.59,0,0,0,1.59,1.59H4.769a1.59,1.59,0,0,0,1.59-1.59V33.59A1.589,1.589,0,0,0,4.769,32Zm7.948,0H9.537a1.589,1.589,0,0,0-1.59,1.59v3.179a1.59,1.59,0,0,0,1.59,1.59h3.179a1.59,1.59,0,0,0,1.59-1.59V33.59A1.589,1.589,0,0,0,12.716,32Zm7.948,0H17.485a1.59,1.59,0,0,0-1.59,1.59v3.179a1.59,1.59,0,0,0,1.59,1.59h3.179a1.59,1.59,0,0,0,1.59-1.59V33.59A1.589,1.589,0,0,0,20.664,32ZM4.769,47.9H1.59A1.59,1.59,0,0,0,0,49.485v3.179a1.59,1.59,0,0,0,1.59,1.59H4.769a1.59,1.59,0,0,0,1.59-1.59V49.485A1.588,1.588,0,0,0,4.769,47.9Zm7.948,0H9.537a1.59,1.59,0,0,0-1.59,1.59v3.179a1.59,1.59,0,0,0,1.59,1.59h3.179a1.59,1.59,0,0,0,1.59-1.59V49.485A1.588,1.588,0,0,0,12.716,47.9Zm7.948,0H17.485a1.59,1.59,0,0,0-1.59,1.59v3.179a1.59,1.59,0,0,0,1.59,1.59h3.179a1.59,1.59,0,0,0,1.59-1.59V49.485A1.588,1.588,0,0,0,20.664,47.9Zm-15.9-7.948H1.59A1.589,1.589,0,0,0,0,41.537v3.179a1.59,1.59,0,0,0,1.59,1.59H4.769a1.59,1.59,0,0,0,1.59-1.59V41.537A1.588,1.588,0,0,0,4.769,39.948Zm7.948,0H9.537a1.588,1.588,0,0,0-1.59,1.59v3.179a1.59,1.59,0,0,0,1.59,1.59h3.179a1.59,1.59,0,0,0,1.59-1.59V41.537A1.588,1.588,0,0,0,12.716,39.948Zm7.948,0H17.485a1.59,1.59,0,0,0-1.59,1.59v3.179a1.59,1.59,0,0,0,1.59,1.59h3.179a1.59,1.59,0,0,0,1.59-1.59V41.537A1.588,1.588,0,0,0,20.664,39.948Z" transform="translate(0 -32)" fill="#fff"/>
</svg>
