<svg xmlns="http://www.w3.org/2000/svg" width="94.337" height="94.343" viewBox="0 0 94.337 94.343">
  <path id="arrows-cross" d="M93.811,36.165A6.761,6.761,0,0,0,87.6,32H60.646a6.738,6.738,0,1,0,0,13.477H71.332L1.974,114.84a6.738,6.738,0,1,0,9.529,9.529L80.861,55.016V65.692a6.738,6.738,0,0,0,13.477,0V38.738A6.433,6.433,0,0,0,93.811,36.165ZM32.871,74.41,42.4,64.881,11.5,33.975A6.738,6.738,0,0,0,1.975,43.5ZM87.6,85.907a6.734,6.734,0,0,0-6.738,6.738v10.687l-19.4-19.4L51.932,93.46l19.411,19.4h-10.7a6.738,6.738,0,1,0,0,13.477H87.6a6.762,6.762,0,0,0,6.22-4.165,6.546,6.546,0,0,0,.518-2.573V92.646A6.731,6.731,0,0,0,87.6,85.907Z" transform="translate(0 -32)" fill="#1e3958"/>
</svg>
