<svg xmlns="http://www.w3.org/2000/svg" width="28.71" height="20.097" viewBox="0 0 28.71 20.097">
  <path id="cloud-check" d="M24.116,40.73A4.312,4.312,0,0,0,20.1,34.871a4.289,4.289,0,0,0-2.391.727,7.178,7.178,0,0,0-13.4,3.58c0,.121,0,.244.009.365A6.461,6.461,0,0,0,6.46,52.1H22.968A5.742,5.742,0,0,0,24.116,40.73ZM18.4,42.389l-4.306,5.024a1.076,1.076,0,0,1-.777.374c-.013-.038-.026-.038-.04-.038a1.078,1.078,0,0,1-.761-.315l-2.153-2.153a1.077,1.077,0,0,1,1.523-1.523l1.332,1.332,3.55-4.142a1.078,1.078,0,0,1,1.518-.116A1.128,1.128,0,0,1,18.4,42.389Z" transform="translate(0 -32)" fill="#00d590"/>
</svg>
