<svg xmlns="http://www.w3.org/2000/svg" width="29.559" height="23.647" viewBox="0 0 29.559 23.647">
  <path id="users" d="M14.775,14.779a4.8,4.8,0,1,0-4.762-4.8A4.769,4.769,0,0,0,14.775,14.779Zm2.309,1.478H12.475a6.369,6.369,0,0,0-6.563,6.157,1.272,1.272,0,0,0,1.312,1.233H22.335a1.272,1.272,0,0,0,1.312-1.233A6.369,6.369,0,0,0,17.084,16.257ZM23.647,7.39a3.695,3.695,0,1,0-3.695-3.695A3.695,3.695,0,0,0,23.647,7.39ZM8.493,9.976a6.153,6.153,0,0,1,.074-.735,3.345,3.345,0,0,0-1.645-.374H4.068A4.2,4.2,0,0,0,0,13.177a.841.841,0,0,0,.814.864h9.214A6.221,6.221,0,0,1,8.493,9.976ZM5.912,7.39A3.695,3.695,0,1,0,2.217,3.695,3.695,3.695,0,0,0,5.912,7.39ZM25.49,8.868H22.634a3.851,3.851,0,0,0-1.656.381,6.328,6.328,0,0,1,.074.728A6.226,6.226,0,0,1,19.52,14.04h9.223a.841.841,0,0,0,.816-.864A4.194,4.194,0,0,0,25.49,8.868Z" fill="#fff"/>
</svg>
