<svg xmlns="http://www.w3.org/2000/svg" width="13.65" height="15.6" viewBox="0 0 13.65 15.6">
  <path id="trash-can" d="M.975,14.134A1.463,1.463,0,0,0,2.438,15.6h8.775a1.463,1.463,0,0,0,1.463-1.463V3.9H.975Zm8.288-7.8a.488.488,0,0,1,.975,0v6.825a.488.488,0,1,1-.975,0Zm-2.925,0a.488.488,0,0,1,.975,0v6.825a.488.488,0,1,1-.975,0Zm-2.925,0a.488.488,0,0,1,.975,0v6.825a.488.488,0,1,1-.975,0ZM13.163.971H9.75L9.4.265A.487.487,0,0,0,8.961,0H4.689a.487.487,0,0,0-.436.269L3.9.971H.488A.487.487,0,0,0,0,1.459v.975a.488.488,0,0,0,.488.488H13.163a.487.487,0,0,0,.488-.488V1.459A.488.488,0,0,0,13.163.971Z" transform="translate(0 0.004)" fill="#d1ff24"/>
</svg>
