<svg xmlns="http://www.w3.org/2000/svg" width="19.25" height="22" viewBox="0 0 19.25 22">
  <path id="trash-can" d="M1.375,19.934A2.063,2.063,0,0,0,3.437,22H15.812a2.063,2.063,0,0,0,2.062-2.062V5.5H1.375Zm11.687-11a.687.687,0,0,1,1.375,0v9.625a.687.687,0,0,1-1.375,0Zm-4.125,0a.687.687,0,0,1,1.375,0v9.625a.687.687,0,0,1-1.375,0Zm-4.125,0a.687.687,0,0,1,1.375,0v9.625a.687.687,0,0,1-1.375,0Zm13.75-7.562H13.75l-.5-1A.687.687,0,0,0,12.637,0H6.613A.687.687,0,0,0,6,.376l-.5,1H.687A.687.687,0,0,0,0,2.059V3.434a.688.688,0,0,0,.687.687H18.562a.687.687,0,0,0,.687-.687V2.059A.688.688,0,0,0,18.562,1.371Z" transform="translate(0 0.004)" fill="#d1ff24"/>
</svg>
