  <svg
                  xmlns="http://www.w3.org/2000/svg"
                  width="19.006"
                  height="25.341"
                  viewBox="0 0 19.006 25.341"
                >
                  <path
                    id="file-arrow-down"
                    d="M19.006,6.335H12.671V0ZM12.671,7.919h6.335V22.965a2.376,2.376,0,0,1-2.376,2.376H2.376A2.376,2.376,0,0,1,0,22.965V2.376A2.376,2.376,0,0,1,2.376,0h8.711V6.335A1.582,1.582,0,0,0,12.671,7.919ZM12.621,14.6l-1.93,1.935V11.483a1.188,1.188,0,0,0-2.376,0v5.053L6.34,14.6a1.014,1.014,0,0,0-.8-.346,1.175,1.175,0,0,0-.84.346,1.188,1.188,0,0,0,0,1.68l3.96,3.96a1.188,1.188,0,0,0,1.68,0l3.96-3.96a1.188,1.188,0,0,0-1.681-1.68Z"
                    fill="#00d590"
                  />
                </svg>