<svg xmlns="http://www.w3.org/2000/svg" width="44.124" height="38.608" viewBox="0 0 44.124 38.608">
  <path id="chart-scatter-3d" d="M11.031,45.789a2.758,2.758,0,1,0-2.758-2.758A2.764,2.764,0,0,0,11.031,45.789Zm22.062-8.273a2.758,2.758,0,1,0-2.758-2.758A2.764,2.764,0,0,0,33.093,37.515Zm0,16.546A2.758,2.758,0,1,0,30.335,51.3,2.764,2.764,0,0,0,33.093,54.062ZM2.758,37.515A2.758,2.758,0,1,0,0,34.758,2.764,2.764,0,0,0,2.758,37.515Zm38.608,2.758a2.758,2.758,0,1,0,2.758,2.758A2.764,2.764,0,0,0,41.366,40.273Zm-19.3,24.82a2.758,2.758,0,1,0,2.758,2.758A2.764,2.764,0,0,0,22.062,65.093ZM5.515,51.3a2.758,2.758,0,1,0-2.758,2.758A2.764,2.764,0,0,0,5.515,51.3Zm19.3,1.465V34.758a2.758,2.758,0,1,0-5.515,0V52.769L3.749,65.731a2.758,2.758,0,1,0,3.533,4.236l14.78-12.311,14.78,12.315a2.706,2.706,0,0,0,1.689.638A2.758,2.758,0,0,0,40.3,65.732Z" transform="translate(0 -32)" fill="#1e3958"/>
</svg>
