<svg xmlns="http://www.w3.org/2000/svg" width="46.572" height="36.223" viewBox="0 0 46.572 36.223">
  <path id="abacus" d="M42.691,32H3.881A3.881,3.881,0,0,0,0,35.881V64.342a3.881,3.881,0,0,0,3.881,3.881h38.81a3.881,3.881,0,0,0,3.881-3.881V35.881A3.881,3.881,0,0,0,42.691,32ZM10.349,50.758H9.056a1.3,1.3,0,0,0-1.294,1.294v1.294a1.294,1.294,0,0,0,1.294,1.294h1.294V56.58H9.056a1.3,1.3,0,0,0-1.294,1.294v1.294a1.294,1.294,0,0,0,1.294,1.294h1.294v2.587H5.175V48.818h5.175Zm0-11H9.056a1.3,1.3,0,0,0-1.294,1.294v1.294a1.294,1.294,0,0,0,1.294,1.294h1.294V46.23H5.175V37.175h5.1Zm10.349,11H19.405a1.3,1.3,0,0,0-1.294,1.294v1.294a1.294,1.294,0,0,0,1.294,1.294H20.7V56.58H19.405a1.3,1.3,0,0,0-1.294,1.294v1.294a1.294,1.294,0,0,0,1.294,1.294H20.7v2.587H12.937V60.461H14.23a1.294,1.294,0,0,0,1.294-1.294V57.873A1.294,1.294,0,0,0,14.23,56.58H12.937V54.639H14.23a1.294,1.294,0,0,0,1.294-1.294V52.052a1.294,1.294,0,0,0-1.294-1.294H12.937V48.818H20.7Zm0-11H19.405a1.3,1.3,0,0,0-1.294,1.294v1.294a1.294,1.294,0,0,0,1.294,1.294H20.7V46.23H12.937V43.643H14.23a1.3,1.3,0,0,0,1.294-1.294V41.056a1.234,1.234,0,0,0-1.294-1.221l-1.294-.073V37.247H20.7ZM33.635,56.58H32.342a1.294,1.294,0,0,0-1.294,1.294v1.294a1.294,1.294,0,0,0,1.294,1.294h1.294v2.587H23.286V60.461H24.58a1.294,1.294,0,0,0,1.294-1.294V57.873A1.294,1.294,0,0,0,24.58,56.58H23.286V54.639H24.58a1.294,1.294,0,0,0,1.294-1.294V52.052a1.294,1.294,0,0,0-1.294-1.294H23.286V48.818H33.635Zm0-16.818H32.342a1.3,1.3,0,0,0-1.294,1.294v1.294a1.294,1.294,0,0,0,1.294,1.294h1.294V46.23H23.286V43.643H24.58a1.3,1.3,0,0,0,1.294-1.294V41.056a1.234,1.234,0,0,0-1.294-1.221l-1.294-.073V37.175H33.635ZM41.4,63.048H36.223V60.461h1.294a1.294,1.294,0,0,0,1.294-1.294V57.873a1.294,1.294,0,0,0-1.294-1.294H36.223V48.818H41.4Zm0-16.818H36.223V43.643h1.294a1.3,1.3,0,0,0,1.294-1.294V41.056a1.234,1.234,0,0,0-1.294-1.221l-1.294-.073V37.175H41.4Z" transform="translate(0 -32)" fill="#1e3958"/>
</svg>
