<svg xmlns="http://www.w3.org/2000/svg" width="27.816" height="22.253" viewBox="0 0 27.816 22.253">
  <path id="timeline-arrow" d="M27.26,10.014,23.088,6.885A1.39,1.39,0,1,0,21.42,9.11l.833.626H16.69V6.659a3.475,3.475,0,1,0-2.782,0V9.736H6.954V6.659a3.475,3.475,0,1,0-2.782,0V9.736H1.391a1.391,1.391,0,0,0,0,2.782H8.345v3.075a3.477,3.477,0,1,0,2.782,0V12.517H22.253l-.834.626a1.39,1.39,0,1,0,1.667,2.225l4.172-3.129a1.389,1.389,0,0,0,0-2.225ZM15.3,2.086a1.391,1.391,0,1,1-1.391,1.391A1.393,1.393,0,0,1,15.3,2.086Zm-9.736,0A1.391,1.391,0,1,1,4.172,3.477,1.393,1.393,0,0,1,5.563,2.086ZM9.736,20.167a1.391,1.391,0,1,1,1.391-1.391A1.393,1.393,0,0,1,9.736,20.167Z" fill="#1e3958"/>
</svg>
