<svg xmlns="http://www.w3.org/2000/svg" width="36.429" height="36.427" viewBox="0 0 36.429 36.427">
  <path id="arrow-down-left-and-arrow-up-right-to-center" d="M32.515.644l-8.635,8.63V5.666a2.277,2.277,0,1,0-4.553,0v9.106a2.274,2.274,0,0,0,.175.869,2.238,2.238,0,0,0,1.233,1.229,2.154,2.154,0,0,0,.868.178H30.71a2.277,2.277,0,0,0,0-4.553H27.1l8.637-8.637A2.276,2.276,0,1,0,32.515.644ZM16.873,20.734A2.274,2.274,0,0,0,15.641,19.5a2.165,2.165,0,0,0-.867-.176H5.668a2.277,2.277,0,1,0,0,4.553h3.61L.642,32.516a2.276,2.276,0,1,0,3.219,3.219l8.637-8.64v3.614a2.277,2.277,0,1,0,4.553,0V21.666A2.246,2.246,0,0,0,16.873,20.734Z" transform="translate(0.025 0.025)" fill="#1e3958"/>
</svg>
