<?xml version="1.0" encoding="utf-8"?>
<!-- Generator: Adobe Illustrator 25.4.1, SVG Export Plug-In . SVG Version: 6.00 Build 0)  -->
<svg version="1.1" id="Ebene_1" xmlns="http://www.w3.org/2000/svg" xmlns:xlink="http://www.w3.org/1999/xlink" x="0px" y="0px"
	 viewBox="0 0 164 269" style="enable-background:new 0 0 164 269;" xml:space="preserve">
<style type="text/css">
	.st0{fill:#19193C;}
	.st1{fill:#C3B9F5;}
	.st2{fill:#004650;}
	.st3{fill:#FFFFFF;}
	.st4{fill:#00D791;}
	.st5{fill:#D2FF23;}
</style>
<g>
	<rect x="66.7" y="62.8" class="st5" width="28.5" height="28.5"/>
	<path class="st5" d="M146.8,39.5c-6.2-11.2-15.2-20-26.7-26.2c-11.4-6.2-24.7-9.3-39.4-9.3c-14.7,0-28,3.1-39.4,9.3
		c-11.5,6.2-20.5,15.1-26.7,26.2C8.3,50.6,5.1,63.6,5.1,78.2v84.1c0,19.6,5.8,36,17.1,49c11,12.5,25.9,20.3,44.1,23.1v34.5h28.9
		V112.6H66.7v95c-7.7-2-14.3-5.7-19.9-11.4C38.3,187.6,34,176.1,34,162V77.2c0-14.3,4.2-25.5,12.9-34.3c8.6-8.7,19.7-13,33.8-13
		c14.1,0,25.1,4.3,33.8,13c8.5,8.6,12.9,20.2,12.9,34.3V162c0,0.8,0,1.6-0.1,2.4c-0.3,7.5-1.8,14.3-4.7,20.2l21,21
		c8.4-12,12.6-26.5,12.6-43.3V78.2C156.1,63.6,153,50.6,146.8,39.5"/>
</g>
</svg>
