<svg xmlns="http://www.w3.org/2000/svg" width="35.914" height="35.914" viewBox="0 0 35.914 35.914">
  <path id="ruler-combined" d="M35.914,24.691v8.979a2.251,2.251,0,0,1-2.245,2.245H2.245A2.251,2.251,0,0,1,0,33.669V2.245A2.251,2.251,0,0,1,2.245,0h8.979a2.239,2.239,0,0,1,2.245,2.181V6.671H7.856a1.122,1.122,0,1,0,0,2.245l5.612.063v4.489H7.856a1.122,1.122,0,0,0,0,2.245h5.612V20.2H7.856a1.122,1.122,0,0,0,0,2.245h5.612v5.612a1.122,1.122,0,0,0,2.245,0V22.446H20.2v5.612a1.122,1.122,0,0,0,2.245,0V22.446h4.489v5.612a1.122,1.122,0,0,0,2.245,0V22.446h4.489A2.251,2.251,0,0,1,35.914,24.691Z" fill="#1e3958"/>
</svg>
