<svg xmlns="http://www.w3.org/2000/svg" width="122.556" height="98.045" viewBox="0 0 122.556 98.045">
  <path id="binary-circle-check" d="M94.98,42.895A27.575,27.575,0,1,0,122.555,70.47,27.582,27.582,0,0,0,94.98,42.895Zm12.888,22.424-14.3,14.3a3.062,3.062,0,0,1-4.332,0l-7.15-7.148a3.063,3.063,0,0,1,4.332-4.332l4.985,4.983L103.54,61.163a3.062,3.062,0,0,1,4.332,0A2.846,2.846,0,0,1,107.868,65.319ZM49.022,30.639a6.128,6.128,0,0,0,0,12.256H67.405a6.128,6.128,0,0,0,0-12.256H64.341V6.128A6.121,6.121,0,0,0,56.892.147L47.7,2.19a6.126,6.126,0,0,0,2.643,11.963l1.743-.387V30.639ZM24.511,85.789H21.447V61.278A6.137,6.137,0,0,0,19.154,56.5,5.633,5.633,0,0,0,13.992,55.3L4.8,57.347A6.127,6.127,0,1,0,7.458,69.309l1.735-.386V85.789H6.129a6.128,6.128,0,1,0,0,12.256H24.513a6.128,6.128,0,1,0,0-12.256ZM36.766,12.256A12.269,12.269,0,0,0,24.511,0H12.255A12.269,12.269,0,0,0,0,12.256V30.639A12.269,12.269,0,0,0,12.255,42.895H24.511A12.269,12.269,0,0,0,36.766,30.639ZM12.255,30.639V12.256H24.511l.006,18.383Zm36.767,55.15V67.406H59.9a34.953,34.953,0,0,1,3.294-12.062,12.529,12.529,0,0,0-1.917-.193H49.022A12.269,12.269,0,0,0,36.766,67.406V85.789A12.269,12.269,0,0,0,49.022,98.045H61.277a12.171,12.171,0,0,0,8.25-3.253,35.42,35.42,0,0,1-6.212-9Z" transform="translate(0.001)" fill="#00d590"/>
</svg>
