<svg xmlns="http://www.w3.org/2000/svg" width="91.914" height="91.914" viewBox="0 0 91.914 91.914">
  <path id="ruler-combined" d="M91.914,63.191V86.169a5.762,5.762,0,0,1-5.745,5.745H5.745A5.762,5.762,0,0,1,0,86.169V5.745A5.762,5.762,0,0,1,5.745,0H28.723a5.73,5.73,0,0,1,5.745,5.583V17.072H20.106a2.872,2.872,0,0,0,0,5.745l14.362.162V34.468H20.106a2.872,2.872,0,0,0,0,5.745H34.468V51.7H20.106a2.872,2.872,0,0,0,0,5.745H34.468V71.808a2.872,2.872,0,0,0,5.745,0V57.446H51.7V71.808a2.872,2.872,0,0,0,5.745,0V57.446H68.936V71.808a2.872,2.872,0,0,0,5.745,0V57.446H86.169A5.762,5.762,0,0,1,91.914,63.191Z" fill="#00d590"/>
</svg>
