<svg xmlns="http://www.w3.org/2000/svg" width="115.333" height="89.704" viewBox="0 0 115.333 89.704">
  <path id="diagram-sankey" d="M106.526,57.63,94.993,76.852H144.13a3.213,3.213,0,0,1,3.2,3.2v6.407a3.2,3.2,0,0,1-3.2,3.2H81.017l7.689,12.815h52.22a6.408,6.408,0,0,1,6.407,6.407V115.3a6.408,6.408,0,0,1-6.407,6.407H85.081a12.814,12.814,0,0,1-10.989-6.221l-15.5-25.816H38.407A6.408,6.408,0,0,1,32,83.259V70.444a6.408,6.408,0,0,1,6.407-6.407h34.4L88.3,38.227A12.781,12.781,0,0,1,99.278,32h41.648a6.408,6.408,0,0,1,6.407,6.407V51.222a6.408,6.408,0,0,1-6.407,6.407Z" transform="translate(-32 -32)" fill="#00d590"/>
</svg>
