<svg xmlns="http://www.w3.org/2000/svg" width="111.5" height="97.563" viewBox="0 0 111.5 97.563">
  <path id="chart-scatter-3d" d="M27.875,66.844a6.969,6.969,0,1,0-6.969-6.969A6.984,6.984,0,0,0,27.875,66.844Zm55.75-20.906a6.969,6.969,0,1,0-6.969-6.969A6.984,6.984,0,0,0,83.625,45.938Zm0,41.813a6.969,6.969,0,1,0-6.969-6.969A6.984,6.984,0,0,0,83.625,87.75ZM6.969,45.938A6.969,6.969,0,1,0,0,38.969,6.984,6.984,0,0,0,6.969,45.938Zm97.563,6.969a6.969,6.969,0,1,0,6.969,6.969A6.984,6.984,0,0,0,104.531,52.906ZM55.75,115.625a6.969,6.969,0,1,0,6.969,6.969A6.984,6.984,0,0,0,55.75,115.625ZM13.938,80.781A6.969,6.969,0,1,0,6.969,87.75,6.984,6.984,0,0,0,13.938,80.781Zm48.781,3.7V38.969a6.969,6.969,0,0,0-13.937,0V84.483L9.473,117.237a6.969,6.969,0,1,0,8.928,10.7L55.75,96.831,93.1,127.951a6.838,6.838,0,0,0,4.268,1.612,6.969,6.969,0,0,0,4.47-12.322Z" transform="translate(0 -32)" fill="#00d590"/>
</svg>
