<svg xmlns="http://www.w3.org/2000/svg" width="90.623" height="90.619" viewBox="0 0 90.623 90.619">
  <path id="arrow-down-left-and-arrow-up-right-to-center" d="M80.925,1.639,59.445,23.106V14.133a5.663,5.663,0,1,0-11.327,0V36.787a5.658,5.658,0,0,0,.436,2.163,5.568,5.568,0,0,0,3.068,3.058,5.359,5.359,0,0,0,2.159.442H76.435a5.663,5.663,0,0,0,0-11.327H67.453L88.939,9.638a5.662,5.662,0,1,0-8.014-8ZM42.012,51.618a5.657,5.657,0,0,0-3.065-3.065,5.387,5.387,0,0,0-2.156-.439H14.138a5.663,5.663,0,1,0,0,11.327H23.12L1.634,80.926a5.663,5.663,0,0,0,8.008,8.008L31.128,67.44v8.991a5.663,5.663,0,1,0,11.327,0V53.937A5.588,5.588,0,0,0,42.012,51.618Z" transform="translate(0.025 0.025)" fill="#1e3958"/>
</svg>
