<svg xmlns="http://www.w3.org/2000/svg" width="118.175" height="91.914" viewBox="0 0 118.175 91.914">
  <path id="abacus" d="M108.327,32H9.848A9.848,9.848,0,0,0,0,41.848v72.218a9.849,9.849,0,0,0,9.848,9.848h98.479a9.848,9.848,0,0,0,9.848-9.848V41.848A9.849,9.849,0,0,0,108.327,32ZM26.261,79.6H22.979A3.292,3.292,0,0,0,19.7,82.881v3.283a3.283,3.283,0,0,0,3.283,3.283h3.283V94.37H22.979A3.292,3.292,0,0,0,19.7,97.653v3.283a3.283,3.283,0,0,0,3.283,3.283h3.283v6.565H13.131V74.674H26.261Zm0-27.9H22.979A3.292,3.292,0,0,0,19.7,54.979v3.283a3.283,3.283,0,0,0,3.283,3.283h3.283v6.565H13.131V45.131H26.077ZM52.522,79.6H49.24a3.292,3.292,0,0,0-3.283,3.283v3.283a3.283,3.283,0,0,0,3.283,3.283h3.283V94.37H49.24a3.292,3.292,0,0,0-3.283,3.283v3.283a3.283,3.283,0,0,0,3.283,3.283h3.283v6.565h-19.7v-6.565h3.283a3.283,3.283,0,0,0,3.283-3.283V97.653a3.283,3.283,0,0,0-3.283-3.283H32.826V89.446h3.283a3.283,3.283,0,0,0,3.283-3.283V82.881A3.283,3.283,0,0,0,36.109,79.6H32.826V74.674h19.7Zm0-27.9H49.24a3.292,3.292,0,0,0-3.283,3.283v3.283a3.283,3.283,0,0,0,3.283,3.283h3.283v6.565h-19.7V61.544h3.283a3.292,3.292,0,0,0,3.283-3.283V54.979a3.13,3.13,0,0,0-3.283-3.1L32.826,51.7V45.315h19.7ZM85.349,94.37H82.066a3.283,3.283,0,0,0-3.283,3.283v3.283a3.283,3.283,0,0,0,3.283,3.283h3.283v6.565H59.088v-6.565H62.37a3.283,3.283,0,0,0,3.283-3.283V97.653A3.283,3.283,0,0,0,62.37,94.37H59.088V89.446H62.37a3.283,3.283,0,0,0,3.283-3.283V82.881A3.283,3.283,0,0,0,62.37,79.6H59.088V74.674H85.349Zm0-42.674H82.066a3.292,3.292,0,0,0-3.283,3.283v3.283a3.283,3.283,0,0,0,3.283,3.283h3.283v6.565H59.088V61.544H62.37a3.292,3.292,0,0,0,3.283-3.283V54.979a3.13,3.13,0,0,0-3.283-3.1L59.088,51.7V45.131H85.349Zm19.7,59.088H91.914v-6.565H95.2a3.283,3.283,0,0,0,3.283-3.283V97.653A3.283,3.283,0,0,0,95.2,94.37H91.914v-19.7h13.131Zm0-42.674H91.914V61.544H95.2a3.292,3.292,0,0,0,3.283-3.283V54.979a3.13,3.13,0,0,0-3.283-3.1L91.914,51.7V45.131h13.131Z" transform="translate(0 -32)" fill="#00d590"/>
</svg>
