<svg xmlns="http://www.w3.org/2000/svg" width="212.478" height="38.714" viewBox="0 0 212.478 38.714">
  <g id="Group_10384" data-name="Group 10384" transform="translate(-1158.522 -160.286)">
    <path id="binary-circle-check" d="M37.019,16.718A10.748,10.748,0,1,0,47.766,27.466,10.75,10.75,0,0,0,37.019,16.718Zm5.023,8.74-5.572,5.572a1.193,1.193,0,0,1-1.688,0l-2.787-2.786a1.194,1.194,0,0,1,1.688-1.688L35.625,28.5l4.73-4.66a1.193,1.193,0,0,1,1.688,0A1.109,1.109,0,0,1,42.042,25.458ZM19.106,11.942a2.388,2.388,0,0,0,0,4.777h7.165a2.388,2.388,0,0,0,0-4.777H25.077V2.388a2.386,2.386,0,0,0-2.9-2.331l-3.583.8a2.388,2.388,0,0,0,1.03,4.663l.679-.151v6.576Zm-9.553,21.5H8.358V23.883a2.392,2.392,0,0,0-.893-1.864,2.2,2.2,0,0,0-2.012-.465l-3.583.8a2.388,2.388,0,1,0,1.036,4.662l.676-.15v6.574H2.388a2.388,2.388,0,1,0,0,4.777H9.553a2.388,2.388,0,1,0,0-4.777Zm4.777-28.66A4.782,4.782,0,0,0,9.553,0H4.776A4.782,4.782,0,0,0,0,4.777v7.165a4.782,4.782,0,0,0,4.777,4.777H9.553a4.782,4.782,0,0,0,4.777-4.777ZM4.776,11.942V4.777H9.553l0,7.165Zm14.33,21.5V26.272h4.24a13.623,13.623,0,0,1,1.284-4.7,4.883,4.883,0,0,0-.747-.075H19.106a4.782,4.782,0,0,0-4.777,4.777v7.165a4.782,4.782,0,0,0,4.777,4.777h4.777A4.744,4.744,0,0,0,27.1,36.945a13.805,13.805,0,0,1-2.421-3.509Z" transform="translate(1158.522 160.286)" fill="#1e3958"/>
  </g>
</svg>
