<svg xmlns="http://www.w3.org/2000/svg" width="22.253" height="19.472" viewBox="0 0 22.253 19.472">
  <path id="folder-grid" d="M20.167,34.782H11.822L9.04,32H2.086A2.087,2.087,0,0,0,0,34.086v15.3a2.087,2.087,0,0,0,2.086,2.086H20.167a2.087,2.087,0,0,0,2.086-2.086V36.868A2.087,2.087,0,0,0,20.167,34.782ZM7.65,44.517a.7.7,0,0,1-.7.7H4.172a.7.7,0,0,1-.7-.7V41.736a.7.7,0,0,1,.7-.7H6.954a.7.7,0,0,1,.7.7Zm5.563,0a.7.7,0,0,1-.7.7H9.736a.7.7,0,0,1-.7-.7V41.736a.7.7,0,0,1,.7-.7h2.782a.7.7,0,0,1,.7.7Zm5.563,0a.7.7,0,0,1-.7.7H15.3a.7.7,0,0,1-.7-.7V41.736a.7.7,0,0,1,.7-.7h2.782a.7.7,0,0,1,.7.7Z" transform="translate(0 -32)" fill="#fff"/>
</svg>
