<svg xmlns="http://www.w3.org/2000/svg" width="27.36" height="21.888" viewBox="0 0 27.36 21.888">
  <path id="user-gear" d="M18.173,20.631q-.148-.08-.291-.168l-.334.192a1.676,1.676,0,0,1-.844.229,1.708,1.708,0,0,1-1.238-.545,7.879,7.879,0,0,1-1.719-2.988,1.652,1.652,0,0,1,.762-1.934l.343-.2q0-.168,0-.336l-.327-.191a1.657,1.657,0,0,1-.84-1.427A7.355,7.355,0,0,0,11.744,13H7.409A7.413,7.413,0,0,0,0,20.409a1.481,1.481,0,0,0,1.482,1.479H17.669a1.446,1.446,0,0,0,.669-.179,1.646,1.646,0,0,1-.165-.687Zm-8.6-9.687A5.472,5.472,0,1,0,4.1,5.472,5.472,5.472,0,0,0,9.576,10.944ZM26.1,15.959a4.945,4.945,0,0,0,0-1.817l1.1-.641a.308.308,0,0,0,.144-.363,6.493,6.493,0,0,0-1.421-2.453.308.308,0,0,0-.385-.059l-1.1.636a5,5,0,0,0-1.577-.908V9.076a.309.309,0,0,0-.246-.3,6.412,6.412,0,0,0-2.832,0,.3.3,0,0,0-.24.3v1.277a5,5,0,0,0-1.577.908l-1.1-.638a.31.31,0,0,0-.385.059,6.415,6.415,0,0,0-1.416,2.453.312.312,0,0,0,.139.363l1.1.641a5.188,5.188,0,0,0,0,1.817l-1.1.641a.305.305,0,0,0-.139.363,6.454,6.454,0,0,0,1.416,2.453.309.309,0,0,0,.385.059l1.106-.636a5,5,0,0,0,1.577.908v1.277a.3.3,0,0,0,.24.3,6.412,6.412,0,0,0,2.832,0,.309.309,0,0,0,.246-.3V19.746a5,5,0,0,0,1.577-.908l1.1.636a.309.309,0,0,0,.385-.059,6.493,6.493,0,0,0,1.421-2.453A.308.308,0,0,0,27.2,16.6ZM21.2,17.122a2.073,2.073,0,1,1,2.073-2.073A2.075,2.075,0,0,1,21.2,17.122Z" fill="#fff"/>
</svg>
