<svg xmlns="http://www.w3.org/2000/svg" width="27.86" height="24.378" viewBox="0 0 27.86 24.378">
  <path id="arrow-right-from-bracket" d="M8.706,52.9H5.224a1.742,1.742,0,0,1-1.741-1.741V37.224a1.742,1.742,0,0,1,1.741-1.741H8.706a1.741,1.741,0,0,0,0-3.483H5.224A5.224,5.224,0,0,0,0,37.224v13.93a5.224,5.224,0,0,0,5.224,5.224H8.706a1.741,1.741,0,0,0,0-3.483Zm18.643-9.936-6.965-6.965a1.741,1.741,0,0,0-2.462,2.462l4,3.991H10.448a1.741,1.741,0,0,0,0,3.483H21.918l-3.993,3.993a1.741,1.741,0,0,0,2.462,2.462l6.965-6.965A1.743,1.743,0,0,0,27.349,42.959Z" transform="translate(0 -32)" fill="#fff"/>
</svg>
