<svg id="Group_2934" data-name="Group 2934" xmlns="http://www.w3.org/2000/svg" width="26.838" height="47.096" viewBox="0 0 26.838 47.096">
  <rect id="Rectangle_1757" data-name="Rectangle 1757" width="5.063" height="5.063" transform="translate(10.948 10.473)" fill="#d1ff24"/>
  <path id="Path_11549" data-name="Path 11549" d="M61.093,40.625a11.791,11.791,0,0,0-4.751-4.665h0a14.511,14.511,0,0,0-7-1.661,14.507,14.507,0,0,0-7,1.661,11.79,11.79,0,0,0-4.751,4.665,13.906,13.906,0,0,0-1.665,6.87V62.451A12.327,12.327,0,0,0,46.8,75.266v6.129H51.93V53.614H46.867V70.506a7.435,7.435,0,0,1-3.532-2.019A8.318,8.318,0,0,1,41.048,62.4V47.327a8.216,8.216,0,0,1,2.287-6.091,8,8,0,0,1,6-2.31,8,8,0,0,1,6,2.31,8.325,8.325,0,0,1,2.287,6.092V62.4h0c0,.144-.007.284-.012.425a9.066,9.066,0,0,1-.829,3.6l3.732,3.732a13.14,13.14,0,0,0,2.238-7.7V47.495A13.913,13.913,0,0,0,61.093,40.625Z" transform="translate(-35.919 -34.299)" fill="#d1ff24"/>
  <rect id="Rectangle_1758" data-name="Rectangle 1758" width="5.063" height="5.063" transform="translate(10.948 10.473)" fill="#d1ff24"/>
  <path id="Path_11550" data-name="Path 11550" d="M61.093,40.625a11.791,11.791,0,0,0-4.751-4.665h0a14.511,14.511,0,0,0-7-1.661,14.507,14.507,0,0,0-7,1.661,11.79,11.79,0,0,0-4.751,4.665,13.906,13.906,0,0,0-1.665,6.87V62.451A12.327,12.327,0,0,0,46.8,75.266v6.129H51.93V53.614H46.867V70.506a7.435,7.435,0,0,1-3.532-2.019A8.318,8.318,0,0,1,41.048,62.4V47.327a8.216,8.216,0,0,1,2.287-6.091,8,8,0,0,1,6-2.31,8,8,0,0,1,6,2.31,8.325,8.325,0,0,1,2.287,6.092V62.4h0c0,.144-.007.284-.012.425a9.066,9.066,0,0,1-.829,3.6l3.732,3.732a13.14,13.14,0,0,0,2.238-7.7V47.495A13.913,13.913,0,0,0,61.093,40.625Z" transform="translate(-35.919 -34.299)" fill="#d1ff24"/>
</svg>