<svg xmlns="http://www.w3.org/2000/svg" width="26.672" height="21.337" viewBox="0 0 26.672 21.337">
  <path id="comments-question-check" d="M17.335,7.335C17.335,3.284,13.455,0,8.666,0S0,3.284,0,7.335a6.6,6.6,0,0,0,1.737,4.392,11.381,11.381,0,0,1-1.65,2.4.321.321,0,0,0-.06.348.315.315,0,0,0,.293.19,8.651,8.651,0,0,0,3.99-1,9.871,9.871,0,0,0,4.359,1C13.455,14.669,17.335,11.385,17.335,7.335ZM8.687,12a1.02,1.02,0,1,1,1.019-1.021A1.007,1.007,0,0,1,8.687,12Zm2.192-4.859L9.45,8.035V8.1a.765.765,0,0,1-1.529,0V7.589A.787.787,0,0,1,8.3,6.92l1.817-1.084a.686.686,0,0,0,.351-.606.707.707,0,0,0-.7-.7H8.112a.707.707,0,0,0-.7.7.765.765,0,1,1-1.529,0A2.218,2.218,0,0,1,8.112,3H9.769a2.216,2.216,0,0,1,1.11,4.142ZM24.986,18.491A6.925,6.925,0,0,0,26.67,14c0-4.051-3.584-7.335-8-7.335l-.039,0c.018.219.039.44.039.665,0,4.11-3.321,7.551-7.756,8.439a7.864,7.864,0,0,0,7.756,5.564,8.536,8.536,0,0,0,3.869-.916,8.6,8.6,0,0,0,3.811.916.315.315,0,0,0,.293-.192.321.321,0,0,0-.06-.348A11.647,11.647,0,0,1,24.986,18.491Zm-2.38-5.247-3.5,3.667a.835.835,0,0,1-.593.258.858.858,0,0,1-.6-.244l-1.667-1.667a.833.833,0,0,1,1.179-1.179l1.064,1.064L21.4,12.093a.834.834,0,0,1,1.206,1.151Z" transform="translate(0.002)" fill="#fff"/>
</svg>
