<svg xmlns="http://www.w3.org/2000/svg" width="25.318" height="25.318" viewBox="0 0 25.318 25.318">
  <path id="upload" d="M5.212,9.03a1.582,1.582,0,0,0,2.238,0L11.077,5.4v12a1.582,1.582,0,1,0,3.165,0V5.4L17.87,9.034A1.582,1.582,0,0,0,20.108,6.8L13.778.466a1.577,1.577,0,0,0-2.237,0L5.212,6.794A1.577,1.577,0,0,0,5.212,9.03Zm18.524,8.377H15.824a3.165,3.165,0,0,1-6.33,0H1.582A1.583,1.583,0,0,0,0,18.989v4.747a1.583,1.583,0,0,0,1.582,1.582H23.736a1.583,1.583,0,0,0,1.582-1.582V18.989A1.581,1.581,0,0,0,23.736,17.406Zm-2.374,5.143a1.187,1.187,0,1,1,1.187-1.187A1.19,1.19,0,0,1,21.362,22.549Z" fill="#d1ff24"/>
</svg>
